<svg xmlns="http://www.w3.org/2000/svg" width="14.344" height="14.13" viewBox="0 0 14.344 14.13">
  <path id="G_Icon" data-name="G+ Icon" class="cls-1" d="M307.087,4996.08a3.022,3.022,0,0,1-1.252-1.28,1.432,1.432,0,0,1,.854-1.25,2.839,2.839,0,0,0,1.255-2.23,2.641,2.641,0,0,0-1.206-2.37h1.116l0.95-.95h-4.251c-2.156,0-3.954,1.54-3.954,3.26a3.023,3.023,0,0,0,3.21,3.15c0.141,0,.278-0.01.412-0.02a1.775,1.775,0,0,0-.226.82,1.448,1.448,0,0,0,.611,1.09h-0.771c-2.47,0-4.184.77-4.184,3.16,0,1.58,2.07,2.68,4.54,2.68,2.815,0,4.571-1.46,4.546-3.15C308.718,4997.73,308.459,4997.09,307.087,4996.08Zm-4.765-4.74a1.915,1.915,0,0,1,1.851-2.33c1.087,0.03,1.8,1.08,1.982,2.48s-0.437,2.25-1.524,2.22A2.568,2.568,0,0,1,302.322,4991.34Zm1.82,9.77c-1.6,0-2.763-.91-2.763-2.02s1.3-1.68,2.871-1.68c0.585,0,2.338,0,2.883,1.34a1.085,1.085,0,0,1,.051.39C307.184,5000.26,306.4,5001.11,304.142,5001.11ZM314,4990.68h-2.045v2.03h-0.679v-2.03H309.23v-0.66h2.042V4988h0.679v2.02H314v0.66Z" transform="translate(-299.656 -4988)"/>
</svg>
