<svg xmlns="http://www.w3.org/2000/svg" width="15" height="19" viewBox="0 0 15 19">
  <defs>
    <style>
      .cls-1 {
        fill: #ff0036;
        fill-rule: evenodd;
      }
    </style>
  </defs>
  <path id="Pinterest_Icon" data-name="Pinterest Icon" class="cls-1" d="M763,9443.55a3.1,3.1,0,0,1-2.719-1.19s-0.647,2.52-.784,3a11.651,11.651,0,0,1-2.01,3.57,0.147,0.147,0,0,1-.264-0.06,11.991,11.991,0,0,1,.033-4.15c0.214-.88,1.419-6.13,1.419-6.13a2.926,2.926,0,0,1-.343-1.54c0-1.61.957-2.72,2.149-2.72a1.4,1.4,0,0,1,1.5,1.54,23.1,23.1,0,0,1-.982,3.87,1.622,1.622,0,0,0,1.756,2c2.11,0,3.531-2.56,3.531-5.7,0-2.39-1.644-4.24-4.633-4.24a5.053,5.053,0,0,0-5.359,5.41,2.737,2.737,0,0,0,.726,2.01,0.527,0.527,0,0,1,.16.61c-0.055.2-.289,0.69-0.341,0.88a0.387,0.387,0,0,1-.557.27c-1.556-.62-2.28-2.29-2.28-4.17,0-3.1,2.667-6.81,7.957-6.81,4.251,0,7.049,3.01,7.049,6.25C769.011,9440.52,766.582,9443.55,763,9443.55Z" transform="translate(-754 -9430)"/>
</svg>
