<svg xmlns="http://www.w3.org/2000/svg" width="17.719" height="14.12" viewBox="0 0 17.719 14.12">
  <path id="Twitter_Icon" data-name="Twitter Icon" class="cls-1" d="M259.726,4989.53a7.309,7.309,0,0,1-2.088.57,3.644,3.644,0,0,0,1.6-1.98,7.34,7.34,0,0,1-2.307.87,3.641,3.641,0,0,0-2.653-1.13,3.6,3.6,0,0,0-3.635,3.57,3.481,3.481,0,0,0,.094.81,10.386,10.386,0,0,1-7.492-3.73,3.514,3.514,0,0,0-.492,1.8,3.561,3.561,0,0,0,1.617,2.97,3.656,3.656,0,0,1-1.646-.45c0,0.01,0,.03,0,0.04a3.582,3.582,0,0,0,2.916,3.5,3.374,3.374,0,0,1-.958.13,3.1,3.1,0,0,1-.684-0.07,3.632,3.632,0,0,0,3.4,2.48,7.365,7.365,0,0,1-4.514,1.53,8.241,8.241,0,0,1-.867-0.05,10.444,10.444,0,0,0,5.571,1.6,10.166,10.166,0,0,0,10.341-10.15c0-.15,0-0.31-0.009-0.46A7.214,7.214,0,0,0,259.726,4989.53Z" transform="translate(-242 -4987.88)"/>
</svg>
